<svg xmlns="http://www.w3.org/2000/svg" width="55" height="55" viewBox="0 0 55 55">
    <g fill="none" fill-rule="evenodd">
        <circle cx="27.5" cy="27.5" r="27.5" fill="#F4F4F4"/>
        <g fill="#353535" fill-rule="nonzero">
            <path d="M36.571 28.733v-10.09a7.5 7.5 0 0 0-7.5-7.5H26.93a7.5 7.5 0 0 0-7.5 7.5v10.009l-4.286 2.911v5.294h25.714v-5.279l-4.286-2.845zm2.143-1.15l3.328 2.21c.598.397.958 1.067.958 1.785v5.28C43 38.04 42.04 39 40.857 39H15.143A2.143 2.143 0 0 1 13 36.857v-5.294c0-.71.352-1.373.939-1.772l3.347-2.274v-8.874A9.643 9.643 0 0 1 26.929 9h2.142a9.643 9.643 0 0 1 9.643 9.643v8.94zM23 39c0 3.314 2.239 6 5 6s5-2.686 5-6h-2c0 1.988-1.343 3.6-3 3.6s-3-1.612-3-3.6h-2z"/>
            <path d="M29 10V8a1 1 0 0 0-2 0v2a1 1 0 0 0 2 0z"/>
        </g>
    </g>
</svg>
