<?xml version="1.0" encoding="UTF-8" standalone="no"?>
<svg width="17px" height="21px" viewBox="0 0 17 21" version="1.1" xmlns="http://www.w3.org/2000/svg" xmlns:xlink="http://www.w3.org/1999/xlink">
    <!-- Generator: Sketch 49 (51002) - http://www.bohemiancoding.com/sketch -->
    <title>Bell</title>
    <desc>Created with Sketch.</desc>
    <defs></defs>
    <g id="Andrew-BT-master" stroke="none" stroke-width="1" fill="none" fill-rule="evenodd">
        <g id="Artboard" transform="translate(-376.000000, -340.000000)" fill="#FFFFFF" fill-rule="nonzero">
            <g id="Bell" transform="translate(376.000000, 340.000000)">
                <path d="M8,1.51152758 L8,1 C8,0.723857625 8.22385763,0.5 8.5,0.5 C8.77614237,0.5 9,0.723857625 9,1 L9,1.51152868 C12.6080701,1.68143049 14.4762097,3.72691148 14.453186,7.49249268 L14.453186,11.7534085 L16.2902732,13.0632569 C16.4218731,13.157088 16.5,13.3087449 16.5,13.4703705 L16.5,16.9815674 C16.5,17.2577098 16.2761424,17.4815674 16,17.4815674 L11.9671421,17.4815674 C11.7324961,19.1866916 10.2696179,20.5 8.5,20.5 C6.73038214,20.5 5.2675039,19.1866916 5.03285789,17.4815674 L1,17.4815674 C0.723857625,17.4815674 0.5,17.2577098 0.5,16.9815674 L0.5,13.5020377 C0.5,13.3457317 0.573095658,13.1984191 0.697566158,13.1038747 L2.46719706,11.7597109 L2.53943439,7.49487627 C2.52147021,3.72662671 4.39197778,1.68140819 8,1.51152758 Z M6.0463399,17.4815674 C6.27080008,18.6318585 7.28401739,19.5 8.5,19.5 C9.71598261,19.5 10.7291999,18.6318585 10.9536601,17.4815674 L6.0463399,17.4815674 Z M1.5,13.7501348 L1.5,16.4815674 L15.5,16.4815674 L15.5,13.7279483 L13.6629129,12.4180999 C13.531313,12.3242688 13.453186,12.1726119 13.453186,12.0109863 L13.4531954,7.4894368 C13.4738807,4.10498638 11.8803802,2.5 8.5,2.5 C5.11935587,2.5 3.52328727,4.10539889 3.53935722,7.50094738 L3.46294121,12.019441 C3.46034839,12.1727547 3.38755165,12.3164016 3.26544654,12.4091493 L1.5,13.7501348 Z" id="Combined-Shape"></path>
            </g>
        </g>
    </g>
</svg>