<?xml version="1.0" encoding="UTF-8" standalone="no"?>
<svg width="322px" height="77px" viewBox="0 0 322 77" version="1.1" xmlns="http://www.w3.org/2000/svg" xmlns:xlink="http://www.w3.org/1999/xlink">
    <!-- Generator: Sketch 47 (45396) - http://www.bohemiancoding.com/sketch -->
    <title>BTlogo</title>
    <desc>Created with Sketch.</desc>
    <defs></defs>
    <g id="Page-1" stroke="none" stroke-width="1" fill="none" fill-rule="evenodd">
        <g id="Logos" transform="translate(-235.000000, -144.000000)">
            <g id="BTlogo" transform="translate(235.000000, 144.000000)">
                <g id="Page-1">
                    <polygon id="Fill-1" fill="#00529F" points="0.017 70.502 321.017 70.502 321.017 0 0.017 0"></polygon>
                    <polygon id="Fill-2" fill="#EC1D24" points="115.79225 70 110 77 321.017 77 321.017 70"></polygon>
                    <polygon id="Fill-3" fill="#FFD41B" points="-2.76480228e-14 70 -2.76480228e-14 77 110.516 77 116.294 70.0084135 104.664 70"></polygon>
                    <g id="Group-56" transform="translate(26.000000, 17.959000)" fill="#FEFEFE">
                        <path d="M30.8831,15.6727 L30.8831,22.1687 C30.8831,22.9447 30.9361,23.4657 31.0391,23.7327 C31.1441,23.9977 31.3291,24.1317 31.5941,24.1317 C31.7561,24.1317 31.9541,24.0387 32.1851,23.8527 C32.4161,23.6557 32.5621,23.5587 32.6201,23.5577 C32.7241,23.5577 32.8221,23.6267 32.9161,23.7667 C33.0071,23.8937 33.0541,24.0387 33.0541,24.2017 C33.0541,24.7217 32.6251,25.3237 31.7681,26.0077 C30.9231,26.6787 30.0621,27.0137 29.1811,27.0137 C28.6371,27.0137 28.1971,26.8407 27.8611,26.4937 C27.5361,26.1587 27.1721,25.4387 26.7671,24.3407 L26.6101,24.3407 C25.6951,25.2197 24.8271,25.8907 24.0051,26.3557 C23.1821,26.8177 22.4661,27.0487 21.8511,27.0487 C20.9831,27.0487 20.2771,26.7147 19.7321,26.0417 C19.1991,25.3697 18.9341,24.4957 18.9341,23.4187 C18.9341,22.3067 19.2401,21.3647 19.8531,20.5877 C20.4681,19.8007 21.6201,18.9557 23.3111,18.0517 L26.1591,16.4887 C26.2861,16.4087 26.3721,16.3027 26.4191,16.1757 C26.4771,16.0387 26.5051,15.8407 26.5061,15.5857 L26.5061,13.3097 C26.5061,12.5917 26.4191,12.0717 26.2451,11.7467 C26.0831,11.4247 25.8171,11.2607 25.4471,11.2607 C24.8681,11.2607 24.2601,11.8857 23.6241,13.1367 C23.4841,13.4267 23.3791,13.6417 23.3111,13.7787 C22.9511,14.4637 22.9921,14.9837 22.4471,15.3427 C21.9151,15.7027 21.3011,15.8817 20.6061,15.8817 C20.2471,15.8817 19.4831,15.7957 19.2981,15.6197 C19.1241,15.4467 19.0381,15.1857 19.0381,14.8387 C19.0381,13.6927 19.7321,12.5867 21.1221,11.5207 C22.5111,10.4447 24.0341,9.9067 25.6901,9.9067 C27.3231,9.9067 28.5951,10.2767 29.5111,11.0187 C30.4251,11.7597 30.8831,12.7957 30.8831,14.1267 L30.8831,15.6727 L30.8831,15.6727 Z M26.5061,18.3307 C26.5061,18.1907 26.4891,18.0867 26.4551,18.0167 C26.4191,17.9487 26.3671,17.9137 26.2981,17.9137 C26.2631,17.9137 26.2111,17.9267 26.1411,17.9487 C26.0831,17.9717 26.0311,18.0057 25.9851,18.0517 L24.9781,18.6947 C24.2601,19.1697 23.7091,19.6847 23.3281,20.2397 C22.9571,20.7967 22.7731,21.3817 22.7731,21.9947 C22.7731,22.6207 22.9221,23.1247 23.2241,23.5057 C23.5241,23.8767 23.9181,24.0617 24.4041,24.0617 C25.0881,24.0617 25.6091,23.8067 25.9681,23.2967 C26.3261,22.7767 26.5051,22.0257 26.5061,21.0397 L26.5061,18.3307 L26.5061,18.3307 Z" id="Fill-4"></path>
                        <path d="M11.9871,14.1608 C13.7821,14.3458 15.1711,14.9758 16.1561,16.0548 C17.1511,17.1198 17.6491,18.5438 17.6501,20.3268 C17.6501,22.4578 17.0471,24.0718 15.8431,25.1728 C14.6391,26.2718 12.8791,26.8218 10.5631,26.8228 C9.6601,26.8228 8.5131,26.7528 7.1241,26.6138 C5.7351,26.4748 2.7531,26.4398 1.9651,26.5098 L0.7841,26.6138 C0.5761,26.6138 0.4081,26.5458 0.2801,26.4058 C0.1651,26.2668 0.1081,26.0758 0.1081,25.8328 C0.1081,25.4848 0.4371,25.2478 1.0981,25.1208 L1.1671,25.1208 C1.7111,25.0158 2.0691,24.8488 2.2431,24.6168 C2.4291,24.3738 2.5211,23.9748 2.5211,23.4178 L2.5211,8.6898 C2.5211,7.7058 2.4461,7.0348 2.2961,6.6758 C2.1571,6.3048 1.9161,5.8688 1.5451,5.8688 C1.4181,5.8688 1.3141,5.8208 1.1281,5.7868 C0.8771,5.7538 0.2501,5.7048 0.1561,5.5998 C0.0751,5.4968 0.0531,5.1108 0.0531,4.9138 C0.0531,4.3008 0.7751,4.3928 2.2231,4.1138 C3.7021,3.9378 5.9431,3.9318 9.0351,3.9308 C11.6401,3.9308 13.6021,4.3948 14.9221,5.3198 C16.2431,6.2478 16.9031,7.6178 16.9031,9.4368 C16.9031,10.7798 16.4861,11.8508 15.6531,12.6498 C14.8301,13.4498 13.6081,13.9508 11.9871,14.1608 L11.9871,14.1608 Z M7.1071,22.8098 C7.1071,23.7478 7.2811,24.4208 7.6281,24.8248 C7.9751,25.2188 8.5361,25.4158 9.3131,25.4158 C10.3651,25.4158 11.2051,24.9758 11.8321,24.0958 C12.4571,23.2048 12.7681,22.0168 12.7681,20.5338 C12.7681,18.8328 12.3861,17.4898 11.6221,16.5058 C10.8701,15.5098 9.8401,15.0128 8.5311,15.0118 C7.9871,15.0118 7.6111,15.1388 7.4031,15.3938 C7.2051,15.6488 7.1071,16.2108 7.1071,17.0788 L7.1071,22.8098 Z M7.1071,12.4928 C7.1071,13.0018 7.1531,13.3038 7.2461,13.3958 C7.3381,13.4778 7.5811,13.5178 7.9751,13.5178 C9.3411,13.5178 10.3651,13.1938 11.0491,12.5448 C11.7441,11.8848 12.0911,10.8948 12.0911,9.5758 C12.0911,8.2098 11.8011,7.1558 11.2241,6.4148 C10.6441,5.6738 9.8211,5.3028 8.7561,5.3028 C8.0851,5.3028 7.6391,5.4138 7.4201,5.6328 C7.2101,5.8528 7.1071,6.3618 7.1071,7.1608 L7.1071,12.4928 Z" id="Fill-6"></path>
                        <path d="M49.4249,9.8189 L49.5269,8.3769 C49.7239,6.3509 50.4129,4.7479 51.5939,3.5669 C52.7759,2.3849 54.2519,1.7939 56.0229,1.7939 C57.0179,1.7939 57.8349,1.9499 58.4729,2.2639 C59.1199,2.5649 59.4449,2.9409 59.4449,3.3909 C59.4449,4.1109 59.2189,4.9039 58.7679,5.7719 C58.3169,6.6299 57.9109,7.0559 57.5519,7.0559 C57.2269,7.0559 56.8749,6.5489 56.4929,5.5289 C56.3889,5.2509 56.3059,5.0369 56.2489,4.8849 C56.0639,4.4349 55.8679,4.0819 55.6599,3.8259 C55.4509,3.5609 55.2529,3.4279 55.0689,3.4269 C54.6169,3.4269 54.2699,3.8909 54.0259,4.8169 C53.7939,5.7309 53.6789,7.0559 53.6789,8.7949 L53.6789,10.1599 C53.6789,10.3109 53.7189,10.4329 53.7999,10.5239 C53.8819,10.6179 53.9859,10.6629 54.1129,10.6629 L56.6319,10.6629 C56.7829,10.6629 56.8799,10.6939 56.9269,10.7499 C56.9729,10.7979 56.9959,10.9769 56.9959,11.1729 L56.9959,11.9549 C56.9959,12.1289 56.9669,12.2499 56.9099,12.3199 C56.8629,12.3889 56.7829,12.4249 56.6669,12.4249 L54.1129,12.4249 C53.9859,12.4249 53.8819,12.4709 53.7999,12.5629 C53.7189,12.6439 53.6789,12.7659 53.6789,12.9269 L53.6789,23.1239 C53.6789,23.6899 53.7319,24.1129 53.8349,24.3919 C53.9389,24.6559 54.1129,24.8539 54.3559,24.9809 C54.5519,25.0849 54.9289,25.1609 55.4849,25.2079 C56.0409,25.2539 56.3189,25.4849 56.3189,25.9019 C56.3189,26.1219 56.2609,26.2889 56.1449,26.4069 C56.0409,26.5209 55.8849,26.5789 55.6769,26.5789 C55.6179,26.5789 55.4629,26.5679 55.2069,26.5459 C53.9449,26.3839 52.6999,26.3019 51.4729,26.3009 C50.5109,26.3009 49.4459,26.3719 48.2779,26.5099 L48.1389,26.5099 C48.0449,26.5099 47.9349,26.5139 47.8079,26.5279 C47.6919,26.5379 47.6219,26.5439 47.5989,26.5459 C47.4489,26.5459 47.3209,26.4879 47.2179,26.3719 C47.1139,26.2439 47.0619,26.0869 47.0619,25.9019 C47.0619,25.6709 47.1139,25.5029 47.2179,25.3979 C47.3209,25.2939 47.5419,25.2249 47.8779,25.1909 C48.0049,25.1909 48.1209,25.1779 48.2249,25.1559 C48.3299,25.1319 48.4269,25.0959 48.5209,25.0499 C48.8089,24.9129 49.0059,24.7279 49.1109,24.4949 C49.2149,24.2519 49.2679,23.7949 49.2679,23.1239 L49.2679,12.7699 L49.2609,12.7729 C49.2609,12.6109 49.1519,12.4329 48.9159,12.4329 L47.2569,12.4329 C47.1409,12.4329 47.0379,12.3969 46.9919,12.3279 C46.9339,12.2589 46.9039,12.1369 46.9039,11.9639 L46.9039,11.1279 C46.9039,10.9309 46.9269,10.8099 46.9739,10.7629 C47.0209,10.7049 47.1179,10.6759 47.2689,10.6759 L48.9889,10.6759 C49.1169,10.6759 49.2269,10.6359 49.3079,10.5429 C49.3889,10.4519 49.4129,10.0629 49.4249,9.8189" id="Fill-8"></path>
                        <path d="M40.0647,10.3199 L40.0647,11.9179 C40.0647,12.0909 40.0717,12.1959 40.0817,12.2319 C40.1057,12.2669 40.1337,12.2829 40.1687,12.2829 C40.2157,12.2829 40.2557,12.2669 40.2917,12.2319 C40.3367,12.1959 40.3947,12.1449 40.4657,12.0739 L40.7767,11.6409 C41.1707,11.1419 41.5817,10.7719 42.0107,10.5289 C42.4397,10.2739 42.8777,10.1479 43.3297,10.1469 C44.0817,10.1469 45.2237,10.6389 45.6977,11.1479 C46.1847,11.6469 46.1397,11.7259 46.1397,12.5239 C46.1397,13.3699 45.3837,14.6819 44.9667,15.1909 C44.5607,15.7019 44.4697,15.7099 44.1247,15.6159 C43.4997,15.4449 42.9397,13.1639 42.4187,12.4939 C41.9097,11.8219 41.3727,12.3979 41.2627,12.5089 C41.0917,12.6799 40.4527,13.6799 40.3777,14.0729 C40.2617,14.3609 40.2037,14.8079 40.2037,15.4089 L40.2037,23.0519 C40.2037,23.6649 40.2447,24.0939 40.3257,24.3369 C40.4057,24.5789 40.5567,24.7699 40.7767,24.9089 C40.9387,25.0139 41.2457,25.0889 41.6977,25.1349 C42.1487,25.1829 42.3747,25.4129 42.3747,25.8299 C42.3747,26.0269 42.3407,26.1839 42.2707,26.2989 C42.2017,26.4159 42.1077,26.4719 41.9927,26.4729 C41.9687,26.4729 41.8947,26.4669 41.7667,26.4569 C41.6507,26.4439 41.5467,26.4379 41.4547,26.4379 L41.3507,26.4379 C40.1467,26.2989 39.0297,26.2289 37.9987,26.2289 C36.9567,26.2289 35.8557,26.2989 34.6987,26.4379 L34.6297,26.4379 C34.5247,26.4379 34.4147,26.4439 34.2987,26.4569 C34.1937,26.4669 34.1367,26.4719 34.1257,26.4729 C33.9737,26.4729 33.8477,26.4159 33.7427,26.2989 C33.6387,26.1729 33.5867,26.0159 33.5867,25.8299 C33.5867,25.5989 33.6327,25.4319 33.7257,25.3259 C33.8297,25.2229 34.0557,25.1539 34.4037,25.1189 C34.5297,25.1189 34.6457,25.1069 34.7507,25.0829 C34.8547,25.0609 34.9527,25.0249 35.0457,24.9789 C35.3347,24.8399 35.5317,24.6539 35.6367,24.4239 C35.7407,24.1799 35.7917,23.7249 35.7917,23.0519 L35.7917,15.5479 C35.7817,15.5029 35.7687,15.4499 35.7577,15.3919 L35.7577,15.0969 C35.7577,14.7139 35.6997,14.4309 35.5847,14.2449 C35.4807,14.0609 35.2997,13.9269 35.0457,13.8469 C34.9417,13.8229 34.8417,13.8059 34.7507,13.7939 C34.6697,13.7719 34.5937,13.7539 34.5247,13.7409 L34.4727,13.7409 C34.0317,13.6609 33.8127,13.4579 33.8127,13.1339 C33.8127,12.7519 34.1537,12.4569 34.8377,12.2479 C34.8607,12.2259 34.8827,12.2139 34.9067,12.2129 C35.1157,12.1789 35.3237,12.1209 35.5317,12.0389 C35.7517,11.9589 35.9817,11.8599 36.2267,11.7449 C36.9087,11.4199 37.5867,10.9579 38.2597,10.3549 C38.9307,9.7409 39.3517,9.4349 39.5257,9.4349 C39.7237,9.4349 39.8617,9.4859 39.9437,9.5909 C40.0237,9.6939 40.0647,9.9379 40.0647,10.3199" id="Fill-10"></path>
                        <path d="M95.9567,7.2473 L95.9567,10.2353 C95.9567,10.3973 95.9917,10.5243 96.0607,10.6173 C96.1297,10.6983 96.2277,10.7393 96.3557,10.7393 L98.6317,10.7393 C98.8267,10.7393 98.9547,10.7683 99.0137,10.8253 C99.0827,10.8833 99.1177,11.0283 99.1177,11.2603 L99.1177,11.7983 C99.1177,12.1223 99.0827,12.3313 99.0137,12.4223 C98.9437,12.5053 98.8167,12.5453 98.6317,12.5453 L96.3557,12.5453 C96.2167,12.5453 96.1127,12.5853 96.0437,12.6673 C95.9847,12.7483 95.9567,12.8743 95.9567,13.0483 L95.8957,21.0253 C95.8957,22.3233 95.9217,23.2283 96.0607,23.7483 C96.2107,24.2673 96.4597,24.5283 96.8077,24.5283 C97.0737,24.5283 97.4147,24.3783 97.8327,24.0783 C98.2607,23.7643 98.5267,23.6083 98.6317,23.6083 C98.7357,23.6083 98.8627,23.6903 99.0137,23.8523 C99.1637,24.0033 99.2387,24.1473 99.2397,24.2863 C99.2397,24.8423 98.7297,25.4673 97.7107,26.1613 C96.7037,26.8573 95.6907,27.2043 94.6707,27.2043 C93.5357,27.2043 92.7137,26.8383 92.2047,26.1103 C91.6957,25.3683 91.4407,24.1703 91.4407,22.5143 L91.5017,13.5323 C91.5017,13.0793 91.5497,12.8883 91.4667,12.7493 C91.3977,12.6103 91.2807,12.5523 91.1067,12.5523 L90.0547,12.5573 C89.7657,12.5573 89.6837,12.5213 89.5867,12.4163 C89.5547,12.3613 89.5407,12.0783 89.5547,11.7943 C89.5617,11.6663 89.5557,11.2883 89.5547,11.2403 C89.5547,11.2403 89.5137,10.9693 89.6597,10.8333 C89.8387,10.7083 89.8417,10.7403 90.0547,10.7403 C90.0547,10.7403 90.8917,10.7463 91.2067,10.6513 C92.1047,10.3793 92.8487,9.7183 93.2677,9.1033 C93.9237,8.1423 93.9927,7.3603 94.0967,6.8613 C94.1527,6.6343 94.1307,6.5393 94.2327,6.3993 C94.3527,6.2693 94.5547,6.2863 94.6487,6.2863 C94.7177,6.2483 95.4267,6.2973 95.4677,6.2973 C95.6777,6.2973 95.7977,6.3013 95.8787,6.4273 C95.9717,6.5543 95.9557,6.8653 95.9567,7.2473" id="Fill-12"></path>
                        <path d="M64.6289,9.8991 C67.0479,9.8991 68.9599,10.6811 70.3609,12.2441 C71.7729,13.7951 72.4799,15.8921 72.4799,18.5321 C72.4799,21.1261 71.7509,23.1931 70.2909,24.7331 C68.8319,26.2711 67.1919,27.0421 64.7029,27.0421 C62.4679,27.0421 60.3219,26.2481 58.9329,24.6621 C57.5539,23.0761 56.8659,21.0091 56.8659,18.4621 C56.8659,15.9141 57.5829,13.8541 59.0189,12.2791 C60.4549,10.6941 62.3249,9.8991 64.6289,9.8991 M64.7819,11.2101 C63.8449,11.1771 63.0839,11.7131 62.5009,12.8171 C61.9299,13.9081 61.6099,15.4441 61.5419,17.4231 C61.4539,19.8981 61.7029,21.8951 62.2869,23.4091 C62.8849,24.9141 63.7029,25.6831 64.7449,25.7201 C65.6589,25.7511 66.4009,25.2101 66.9739,24.0951 C67.5569,22.9801 67.8839,21.4371 67.9519,19.4701 C68.0379,17.0071 67.7879,15.0231 67.2039,13.5181 C66.6189,12.0151 65.8109,11.2461 64.7819,11.2101" id="Fill-14"></path>
                        <path d="M81.7775,9.8991 C84.1965,9.8991 86.1075,10.6811 87.5095,12.2441 C88.9215,13.7951 89.6265,15.8921 89.6275,18.5321 C89.6275,21.1261 88.8985,23.1931 87.4385,24.7331 C85.9795,26.2711 84.3405,27.0421 81.8515,27.0421 C79.6155,27.0421 77.4695,26.2481 76.0815,24.6621 C74.7025,23.0761 74.0135,21.0091 74.0135,18.4621 C74.0135,15.9141 74.7315,13.8541 76.1665,12.2791 C77.6025,10.6941 79.4725,9.8991 81.7775,9.8991 M81.9295,11.2101 C80.9925,11.1771 80.2315,11.7131 79.6485,12.8171 C79.0785,13.9081 78.7575,15.4441 78.6885,17.4231 C78.6025,19.8981 78.8505,21.8951 79.4355,23.4091 C80.0315,24.9141 80.8505,25.6831 81.8935,25.7201 C82.8065,25.7511 83.5495,25.2101 84.1215,24.0951 C84.7055,22.9801 85.0305,21.4371 85.1005,19.4701 C85.1855,17.0071 84.9365,15.0231 84.3525,13.5181 C83.7665,12.0151 82.9595,11.2461 81.9295,11.2101" id="Fill-16"></path>
                        <path d="M211.6875,10.0384 L211.6875,11.5384 C211.6875,11.7474 211.6985,11.8754 211.7225,11.9224 C211.7445,11.9564 211.7915,11.9734 211.8615,11.9734 C211.8955,11.9734 211.9305,11.9684 211.9655,11.9564 C212.0125,11.9344 212.0525,11.9044 212.0875,11.8694 L212.4375,11.4674 C212.9715,10.8884 213.5535,10.4454 214.1795,10.1434 C214.8075,9.8414 215.4665,9.6904 216.1515,9.6894 C217.8255,9.6894 219.1975,10.4794 220.2675,12.0604 C221.3355,13.6314 221.8715,15.6824 221.8725,18.2174 C221.8725,20.7414 221.2475,22.8214 220.0045,24.4604 C218.7615,26.0874 217.2035,26.9014 215.3305,26.9024 C214.6925,26.9024 214.0995,26.8324 213.5535,26.6924 C213.0065,26.5524 212.4415,26.3274 211.8615,26.0134 L211.7565,26.1184 L211.7565,30.6854 C211.7565,31.2664 211.7965,31.6794 211.8795,31.9244 C211.9715,32.1794 212.1345,32.3724 212.3675,32.4994 C212.5285,32.5924 212.8035,32.6674 213.1865,32.7274 L213.2215,32.7274 L213.2565,32.7274 C213.8255,32.8074 214.1105,33.0574 214.1105,33.4764 C214.1105,33.6504 214.0585,33.8004 213.9555,33.9304 C213.8615,34.0574 213.7505,34.1204 213.6225,34.1204 C213.5295,34.1204 213.3145,34.0984 212.9765,34.0524 C211.7335,33.9234 210.5885,33.8604 209.5415,33.8604 C208.4955,33.8604 207.3565,33.9234 206.1235,34.0524 C205.7755,34.0984 205.5605,34.1204 205.4795,34.1204 C205.3505,34.1204 205.2405,34.0574 205.1485,33.9304 C205.0555,33.8004 205.0085,33.6504 205.0085,33.4764 C205.0085,33.2444 205.0605,33.0694 205.1655,32.9524 C205.2695,32.8484 205.5015,32.7844 205.8635,32.7624 C205.9915,32.7624 206.1125,32.7504 206.2285,32.7274 C206.3455,32.7014 206.4505,32.6674 206.5425,32.6214 C206.8565,32.4934 207.0665,32.3014 207.1705,32.0474 C207.2755,31.8024 207.3285,31.3484 207.3285,30.6854 L207.3285,14.7984 C207.3285,14.4284 207.2455,14.1424 207.0835,13.9444 C206.9215,13.7474 206.5985,13.6024 206.1235,13.5084 L206.0895,13.5084 C205.5895,13.3814 205.3395,13.1654 205.3395,12.8644 C205.3395,12.6324 205.4025,12.4564 205.5315,12.3414 C205.6715,12.2134 205.9845,12.1024 206.4725,12.0094 C206.5075,11.9974 206.5645,11.9864 206.6485,11.9734 C207.2055,11.8354 207.6585,11.6894 208.0085,11.5384 C208.9265,11.1664 209.7755,10.5624 210.5535,9.7244 L210.5885,9.6894 C210.7745,9.4814 210.9145,9.3404 211.0065,9.2714 C211.1125,9.1894 211.2115,9.1494 211.3025,9.1494 C211.4315,9.1494 211.5255,9.2244 211.5835,9.3754 C211.6525,9.5264 211.6875,9.7484 211.6875,10.0384 L211.6875,10.0384 Z M211.7565,22.8214 C211.7565,23.7054 211.9265,24.3624 212.2635,24.7924 C212.6115,25.2234 213.1345,25.4364 213.8315,25.4364 C214.8885,25.4364 215.7325,24.8334 216.3615,23.6234 C216.9885,22.4034 217.3025,20.7354 217.3025,18.6174 C217.3025,16.7114 216.9705,15.1774 216.3095,14.0154 C215.6575,12.8404 214.8195,12.2534 213.7965,12.2524 C213.0405,12.2524 212.5125,12.5094 212.2095,13.0204 C211.9085,13.5204 211.7565,14.5494 211.7565,16.1064 L211.7565,22.8214 Z" id="Fill-18"></path>
                        <path d="M185.6162,10.0734 L185.6162,11.7304 C185.6162,11.8234 185.6272,11.8994 185.6512,11.9564 C185.6862,12.0154 185.7252,12.0444 185.7732,12.0444 C185.7842,12.0444 185.8192,12.0264 185.8792,11.9914 C185.9362,11.9434 185.9952,11.8924 186.0522,11.8354 L186.5582,11.3284 C187.0812,10.7824 187.6562,10.3814 188.2852,10.1264 C188.9122,9.8594 189.6102,9.7254 190.3762,9.7244 C191.2952,9.7244 192.0902,9.9234 192.7672,10.3174 C193.4412,10.7014 194.0102,11.3004 194.4752,12.1134 L194.6332,12.1134 C195.2132,11.3694 195.9122,10.7884 196.7252,10.3704 C197.5502,9.9404 198.3872,9.7254 199.2362,9.7244 C200.7822,9.7244 201.9392,10.1604 202.7072,11.0334 C203.4852,11.9044 203.8752,13.2184 203.8772,14.9724 L203.8772,22.8214 C203.8772,23.4724 203.9152,23.9144 203.9982,24.1474 C204.0772,24.3804 204.2282,24.5594 204.4502,24.6864 C204.6132,24.7814 204.8742,24.8514 205.2362,24.8964 C205.8032,24.9654 206.0882,25.2164 206.0882,25.6464 C206.0882,25.8664 206.0312,26.0304 205.9162,26.1344 C205.8102,26.2384 205.6412,26.2914 205.4082,26.2914 C205.3752,26.2914 205.0132,26.2434 204.3282,26.1514 C203.6542,26.0604 202.9902,26.0144 202.3402,26.0134 C200.9672,26.0134 199.6372,26.0824 198.3472,26.2204 C198.1372,26.2434 198.0162,26.2564 197.9812,26.2564 C197.8172,26.2564 197.6842,26.2034 197.5792,26.1004 C197.4862,25.9954 197.4402,25.8444 197.4402,25.6464 C197.4402,25.2164 197.7012,24.9664 198.2242,24.8964 C198.4792,24.8514 198.6602,24.8034 198.7662,24.7564 C199.0312,24.6294 199.2122,24.4494 199.3052,24.2164 C199.3982,23.9724 199.4452,23.5064 199.4462,22.8214 L199.4462,15.8984 C199.4462,14.5734 199.2702,13.5784 198.9232,12.9154 C198.5832,12.2424 198.0672,11.9044 197.3692,11.9044 C196.5332,11.9044 195.9292,12.2244 195.5562,12.8644 C195.1952,13.4914 195.0152,14.5834 195.0152,16.1414 L195.0152,22.9084 C195.0152,23.5254 195.0572,23.9554 195.1382,24.1984 C195.2192,24.4434 195.3692,24.6294 195.5902,24.7564 C195.6842,24.8034 195.8232,24.8514 196.0102,24.8964 C196.4632,24.9654 196.6902,25.2164 196.6902,25.6464 C196.6902,25.8554 196.6552,26.0134 196.5852,26.1184 C196.5272,26.2104 196.4342,26.2564 196.3062,26.2564 C196.2942,26.2564 196.2372,26.2514 196.1312,26.2384 C196.0382,26.2264 195.9522,26.2204 195.8712,26.2204 L195.7642,26.2204 C194.7072,26.0824 193.7202,26.0134 192.8022,26.0134 C191.8822,26.0134 190.8712,26.0824 189.7672,26.2204 L189.6272,26.2204 C189.5462,26.2204 189.4492,26.2264 189.3322,26.2384 C189.2272,26.2514 189.1562,26.2564 189.1212,26.2564 C188.9582,26.2564 188.8252,26.2034 188.7202,26.1004 C188.6292,25.9954 188.5812,25.8444 188.5812,25.6464 C188.5812,25.2164 188.8482,24.9664 189.3822,24.8964 C189.6272,24.8514 189.8022,24.8034 189.9072,24.7564 C190.1732,24.6294 190.3532,24.4494 190.4462,24.2164 C190.5392,23.9724 190.5852,23.5064 190.5862,22.8214 L190.5862,15.8984 C190.5862,14.5734 190.4112,13.5784 190.0642,12.9154 C189.7252,12.2424 189.2092,11.9044 188.5112,11.9044 C187.6742,11.9044 187.0702,12.2244 186.6972,12.8644 C186.3372,13.4914 186.1562,14.5834 186.1562,16.1414 L186.1562,22.8214 C186.1562,23.4504 186.1852,23.8854 186.2442,24.1294 C186.3142,24.3744 186.4302,24.5594 186.5932,24.6864 C186.7202,24.7814 186.9232,24.8514 187.2042,24.8964 C187.6222,24.9654 187.8322,25.2054 187.8322,25.6114 C187.8322,25.8314 187.8022,25.9954 187.7432,26.1004 C187.6972,26.2034 187.6222,26.2564 187.5182,26.2564 C187.5052,26.2564 187.4512,26.2514 187.3592,26.2384 C187.2662,26.2264 187.1752,26.2204 187.0812,26.2204 L187.0482,26.2204 C186.0002,26.0824 184.9662,26.0134 183.9412,26.0134 C182.9762,26.0134 181.9082,26.0824 180.7342,26.2204 L180.5932,26.2204 C180.5002,26.2204 180.3902,26.2264 180.2632,26.2384 C180.1462,26.2514 180.0762,26.2564 180.0532,26.2564 C179.8902,26.2564 179.7572,26.2034 179.6532,26.1004 C179.5592,25.9834 179.5132,25.8314 179.5132,25.6464 C179.5132,25.2404 179.7612,24.9894 180.2632,24.8964 L180.3322,24.8964 C180.4602,24.8964 180.5752,24.8854 180.6822,24.8604 C180.7872,24.8384 180.8852,24.8034 180.9772,24.7564 C181.2672,24.6164 181.4652,24.4314 181.5702,24.1984 C181.6752,23.9554 181.7262,23.4954 181.7262,22.8214 L181.7262,15.5134 C181.7262,14.8404 181.6912,14.4044 181.6222,14.2074 C181.5542,14.0104 181.4262,13.8464 181.2402,13.7194 C181.0882,13.6364 180.8612,13.5664 180.5582,13.5084 L180.4892,13.5084 L180.4542,13.5084 C179.9782,13.4274 179.7392,13.2244 179.7392,12.8994 C179.7392,12.6884 179.7962,12.5264 179.9132,12.4104 C180.0302,12.2934 180.3262,12.1724 180.8032,12.0444 C180.8502,12.0334 180.9192,12.0104 181.0112,11.9734 C181.4892,11.8464 181.8732,11.7144 182.1622,11.5724 C182.8832,11.2244 183.5542,10.7414 184.1692,10.1264 C184.7982,9.4974 185.1632,9.1834 185.2662,9.1834 C185.3962,9.1834 185.4842,9.2494 185.5292,9.3754 C185.5872,9.4914 185.6162,9.7244 185.6162,10.0734" id="Fill-20"></path>
                        <path d="M171.6789,9.2795 C174.1079,9.2795 176.0289,10.0635 177.4339,11.6335 C178.8519,13.1905 179.5609,15.2945 179.5629,17.9465 C179.5629,20.5505 178.8299,22.6255 177.3649,24.1715 C175.9009,25.7185 173.9179,26.4905 171.4179,26.4905 C169.1749,26.4905 167.3539,25.6945 165.9609,24.1025 C164.5759,22.5095 163.8849,20.4345 163.8849,17.8765 C163.8849,15.3185 164.6049,13.2505 166.0469,11.6685 C167.4889,10.0755 169.3659,9.2795 171.6789,9.2795 M171.4889,10.6045 C170.5449,10.6045 169.8009,11.1675 169.2549,12.2955 C168.7209,13.4115 168.4529,14.9645 168.4529,16.9515 C168.4529,19.4395 168.7719,21.4335 169.4119,22.9335 C170.0639,24.4225 170.9119,25.1655 171.9589,25.1655 C172.8769,25.1655 173.6039,24.5955 174.1389,23.4555 C174.6839,22.3175 174.9569,20.7595 174.9579,18.7845 C174.9579,16.3065 174.6379,14.3245 173.9989,12.8365 C173.3599,11.3485 172.5219,10.6045 171.4889,10.6045" id="Fill-22"></path>
                        <path d="M153.1712,4.3361 L153.1712,11.0851 C153.1712,11.1791 153.1832,11.2541 153.2062,11.3121 C153.2412,11.3691 153.2752,11.3981 153.3102,11.3981 C153.3332,11.3981 153.3682,11.3871 153.4162,11.3631 C153.4622,11.3281 153.5242,11.2821 153.6062,11.2251 L154.3572,10.6841 C154.7762,10.3821 155.2582,10.1441 155.8042,9.9681 C156.3512,9.7821 156.8792,9.6911 157.3912,9.6901 C158.9492,9.6901 160.1102,10.1371 160.8782,11.0331 C161.6452,11.9171 162.0312,13.2661 162.0312,15.0791 L162.0312,22.8211 C162.0312,23.4371 162.0692,23.8671 162.1522,24.1121 C162.2332,24.3561 162.3842,24.5471 162.6042,24.6881 C162.7562,24.7691 163.0642,24.8381 163.5302,24.8971 C164.0062,24.9551 164.2442,25.1931 164.2452,25.6111 C164.2452,25.8321 164.1922,25.9961 164.0872,26.1001 C163.9822,26.2031 163.8202,26.2561 163.5992,26.2561 C163.5872,26.2561 163.2212,26.2161 162.5012,26.1341 C161.7782,26.0531 161.0642,26.0141 160.3562,26.0131 C159.0422,26.0131 157.7572,26.0831 156.5012,26.2221 C156.3042,26.2441 156.1822,26.2551 156.1352,26.2561 C155.9732,26.2561 155.8402,26.1991 155.7342,26.0831 C155.6412,25.9661 155.5942,25.8091 155.5942,25.6111 C155.5942,25.1811 155.8622,24.9331 156.3972,24.8621 C156.6412,24.8381 156.8152,24.8041 156.9202,24.7571 C157.1872,24.6301 157.3672,24.4501 157.4622,24.2171 C157.5542,23.9731 157.6002,23.5071 157.6002,22.8211 L157.6002,15.8641 C157.6002,14.5271 157.4272,13.5271 157.0762,12.8641 C156.7392,12.2021 156.2232,11.8691 155.5252,11.8691 C154.6882,11.8691 154.0832,12.1901 153.7112,12.8301 C153.3502,13.4561 153.1712,14.5501 153.1712,16.1071 L153.1712,22.8211 C153.1712,23.4491 153.2002,23.8841 153.2592,24.1281 C153.3282,24.3741 153.4442,24.5601 153.6062,24.6881 C153.7352,24.7811 153.9382,24.8511 154.2182,24.8971 C154.6362,24.9671 154.8452,25.2051 154.8452,25.6111 C154.8452,25.8321 154.8152,25.9961 154.7582,26.1001 C154.7102,26.2031 154.6362,26.2561 154.5302,26.2561 C154.5192,26.2561 154.4672,26.2501 154.3742,26.2391 C154.2812,26.2271 154.1872,26.2221 154.0952,26.2221 L154.0602,26.2221 C153.0142,26.0831 151.9792,26.0131 150.9562,26.0131 C149.9902,26.0131 148.9212,26.0831 147.7482,26.2221 L147.6072,26.2221 C147.5162,26.2221 147.4052,26.2271 147.2772,26.2391 C147.1592,26.2501 147.0892,26.2551 147.0672,26.2561 C146.9152,26.2561 146.7882,26.1991 146.6842,26.0831 C146.5792,25.9551 146.5262,25.7971 146.5262,25.6111 C146.5262,25.3801 146.5732,25.2111 146.6662,25.1061 C146.7712,25.0021 146.9962,24.9321 147.3472,24.8971 C147.4752,24.8971 147.5892,24.8861 147.6942,24.8621 C147.7992,24.8381 147.8982,24.8041 147.9922,24.7571 C148.2822,24.6171 148.4792,24.4311 148.5842,24.1991 C148.6902,23.9551 148.7422,23.4951 148.7422,22.8211 L148.7422,6.6201 C148.7422,6.1561 148.6962,5.7961 148.6012,5.5391 C148.5092,5.2841 148.3522,5.0811 148.1302,4.9281 C148.0492,4.8711 147.9512,4.8241 147.8352,4.7891 C147.7162,4.7431 147.5962,4.7081 147.4692,4.6861 L147.4182,4.6861 C146.9732,4.5571 146.7532,4.3301 146.7532,4.0051 C146.7532,3.7381 146.8342,3.5351 146.9962,3.3941 C147.1592,3.2561 147.5782,3.1271 148.2532,3.0101 C148.2882,3.0101 148.3282,3.0051 148.3762,2.9931 C148.4332,2.9821 148.5202,2.9641 148.6372,2.9421 C149.5892,2.7311 150.4912,2.4241 151.3392,2.0171 C152.1872,1.6101 152.6362,1.4071 152.6832,1.4061 C152.8562,1.4061 152.9902,1.4751 153.0842,1.6161 C153.1892,1.7551 153.2412,1.9591 153.2412,2.2251 C153.2412,2.3781 153.2292,2.6921 153.2062,3.1671 C153.1832,3.6341 153.1712,4.0221 153.1712,4.3361" id="Fill-24"></path>
                        <path d="M141.3217,2.434 L137.5977,2.476 L133.8357,2.448 C133.1387,2.448 130.1407,2.268 129.7967,2.318 C129.6417,2.439 129.4777,2.38 129.4587,2.594 C129.3387,4.028 129.2557,7.622 129.2557,7.753 C129.2557,7.951 129.2957,8.102 129.3787,8.207 C129.4697,8.31 129.5987,8.363 129.7617,8.363 C130.0287,8.363 130.3487,8.003 130.7197,7.282 C131.0807,6.654 131.4067,6.144 131.6967,5.747 C132.0817,5.224 132.4817,4.841 132.9007,4.596 C133.3297,4.34 133.8087,4.213 134.3307,4.213 L134.7667,4.213 C134.8937,4.214 134.9927,4.259 135.0637,4.353 C135.1447,4.435 135.1857,4.557 135.1857,4.719 L135.1857,23.118 C135.1857,23.688 135.0987,24.094 134.9227,24.339 C134.7607,24.57 134.4357,24.734 133.9467,24.827 L133.7897,24.827 C133.1957,24.955 132.9007,25.194 132.9007,25.542 C132.9007,25.786 132.9907,25.878 133.1187,26.019 C133.2467,26.158 133.4107,26.228 133.6077,26.228 C133.6657,26.228 136.3417,25.982 137.5177,25.982 C138.6797,25.982 141.5377,26.228 141.5947,26.228 C141.8167,26.228 141.9847,26.158 142.1017,26.019 C142.2177,25.878 142.2657,25.775 142.2657,25.506 C142.2657,25.181 141.9797,24.966 141.4107,24.862 C141.2937,24.851 141.1957,24.838 141.1137,24.827 C140.6967,24.757 140.3927,24.595 140.2067,24.339 C140.0327,24.071 139.9467,23.675 139.9467,23.153 L139.9467,4.719 C139.9467,4.557 139.9817,4.435 140.0497,4.353 C140.1307,4.259 140.2327,4.214 140.3597,4.214 L140.7937,4.197 C141.3157,4.197 141.7937,4.325 142.2227,4.58 C142.6427,4.825 143.0427,5.208 143.4277,5.731 C143.7187,6.127 144.0437,6.639 144.4037,7.267 C144.7757,7.986 145.0967,8.347 145.3617,8.347 C145.5257,8.347 145.6537,8.295 145.7457,8.19 C145.8287,8.087 145.8687,7.935 145.8687,7.738 C145.8687,7.606 145.7857,4.011 145.6657,2.579 C145.6467,2.363 145.4827,2.423 145.3267,2.302 C144.9837,2.25 142.0197,2.434 141.3217,2.434" id="Fill-26"></path>
                        <path d="M229.1517,9.6904 C229.7667,9.6904 230.3947,9.7484 231.0347,9.8644 C231.6727,9.9814 232.2377,10.1384 232.7267,10.3354 C233.0187,10.4404 233.2087,10.5674 233.3007,10.7194 C233.3947,10.8714 233.4407,11.1424 233.4417,11.5384 C233.4417,11.8404 233.4347,12.1894 233.4237,12.5834 C233.4117,12.9684 233.4067,13.1954 233.4067,13.2654 C233.4067,13.5324 233.3537,13.7404 233.2487,13.8924 C233.1457,14.0444 232.9937,14.1194 232.7967,14.1194 C232.5757,14.1194 232.1177,13.5834 231.4187,12.5154 C230.7217,11.4334 229.9307,10.8924 229.0447,10.8924 C228.3837,10.8924 227.8427,11.0684 227.4237,11.4164 C227.0067,11.7544 226.7967,12.1894 226.7967,12.7244 C226.7967,13.5494 227.7387,14.3684 229.6217,15.1834 C229.9017,15.3114 230.1177,15.4094 230.2677,15.4794 C231.7547,16.1414 232.7947,16.8744 233.3887,17.6774 C233.9937,18.4794 234.2957,19.5064 234.2967,20.7644 C234.2967,22.5774 233.6847,24.0534 232.4637,25.1934 C231.2437,26.3334 229.6507,26.9014 227.6867,26.9024 C226.3147,26.9024 225.2037,26.6864 224.3567,26.2564 C223.5067,25.8374 223.0827,25.2804 223.0827,24.5824 C223.0827,23.2124 223.1297,22.2684 223.2217,21.7574 C223.3277,21.2344 223.5067,20.9734 223.7627,20.9734 C224.0877,20.9734 224.3967,21.3684 224.6877,22.1584 C224.8957,22.7164 225.0897,23.1654 225.2627,23.5014 C225.6347,24.2454 226.0707,24.7914 226.5697,25.1424 C227.0707,25.4774 227.6567,25.6464 228.3317,25.6464 C229.0877,25.6464 229.7137,25.4254 230.2147,24.9834 C230.7267,24.5434 230.9807,24.0024 230.9837,23.3624 C230.9837,22.7474 230.8257,22.2514 230.5117,21.8784 C230.2087,21.4954 229.4947,21.0244 228.3667,20.4674 C228.2027,20.3864 227.9657,20.2704 227.6517,20.1184 C224.7237,18.6874 223.2567,16.9734 223.2567,14.9734 C223.2567,13.3694 223.7917,12.0894 224.8617,11.1374 C225.9307,10.1724 227.3607,9.6914 229.1517,9.6904" id="Fill-28"></path>
                        <path d="M257.2499,10.0384 L257.2499,11.5034 C257.2499,11.6544 257.2619,11.7644 257.2849,11.8354 C257.3069,11.9044 257.3479,11.9384 257.4069,11.9384 C257.4419,11.9384 257.4779,11.9344 257.5129,11.9224 C257.5479,11.8994 257.5829,11.8704 257.6179,11.8354 L257.9299,11.5034 C258.4309,10.9574 259.0499,10.5214 259.7969,10.1954 C260.5529,9.8594 261.2909,9.6904 262.0099,9.6894 C263.5239,9.6894 264.6739,10.1194 265.4639,10.9804 C266.2529,11.8304 266.6479,13.0784 266.6479,14.7294 L266.6479,22.8214 C266.6479,23.4504 266.6909,23.8854 266.7699,24.1294 C266.8529,24.3744 267.0029,24.5594 267.2249,24.6864 C267.3749,24.7694 267.6849,24.8384 268.1479,24.8964 C268.6249,24.9554 268.8639,25.1934 268.8639,25.6114 C268.8639,25.7854 268.8179,25.9374 268.7249,26.0654 C268.6309,26.1924 268.5199,26.2554 268.3949,26.2564 C268.3469,26.2564 268.2079,26.2434 267.9749,26.2204 C266.7789,26.0824 265.5969,26.0134 264.4359,26.0134 C263.5299,26.0134 262.5379,26.0714 261.4699,26.1854 C261.3879,26.2104 261.3309,26.2204 261.2969,26.2204 C261.2029,26.2204 261.0929,26.2264 260.9649,26.2384 C260.8479,26.2514 260.7799,26.2554 260.7549,26.2564 C260.5929,26.2564 260.4589,26.1984 260.3539,26.0824 C260.2599,25.9654 260.2149,25.8094 260.2149,25.6114 C260.2149,25.1814 260.4819,24.9314 261.0159,24.8604 C261.2629,24.8384 261.4359,24.8034 261.5409,24.7564 C261.8079,24.6294 261.9869,24.4494 262.0809,24.2164 C262.1749,23.9724 262.2199,23.5064 262.2199,22.8214 L262.2199,15.8634 C262.2199,14.5264 262.0469,13.5264 261.6979,12.8644 C261.3599,12.2004 260.8429,11.8694 260.1469,11.8694 C259.3089,11.8694 258.7039,12.1894 258.3319,12.8284 C257.9709,13.4564 257.7899,14.5494 257.7899,16.1064 L257.7899,22.8214 C257.7899,23.4504 257.8179,23.8854 257.8779,24.1294 C257.9479,24.3744 258.0649,24.5594 258.2269,24.6864 C258.3539,24.7814 258.5589,24.8514 258.8369,24.8964 C259.2549,24.9554 259.4649,25.1934 259.4649,25.6114 C259.4649,25.8314 259.4309,25.9904 259.3599,26.0824 C259.2919,26.1754 259.1639,26.2204 258.9759,26.2204 C258.9309,26.2204 258.8089,26.2104 258.6099,26.1854 C257.5999,26.0714 256.5869,26.0144 255.5749,26.0134 C254.5289,26.0134 253.4249,26.0824 252.2619,26.2204 L252.1919,26.2204 C252.0879,26.2204 251.9789,26.2264 251.8609,26.2384 C251.7579,26.2514 251.6989,26.2554 251.6879,26.2564 C251.5369,26.2564 251.4069,26.1984 251.3039,26.0824 C251.1989,25.9554 251.1469,25.7974 251.1469,25.6114 C251.1469,25.3784 251.1939,25.2114 251.2869,25.1064 C251.3899,25.0004 251.6179,24.9314 251.9659,24.8964 C252.0939,24.8964 252.2089,24.8844 252.3159,24.8604 C252.4219,24.8384 252.5189,24.8034 252.6109,24.7564 C252.9019,24.6164 253.0989,24.4314 253.2039,24.1984 C253.3099,23.9554 253.3609,23.4954 253.3609,22.8214 L253.3609,15.5134 C253.3609,14.8404 253.3259,14.4034 253.2559,14.2064 C253.1879,14.0104 253.0589,13.8464 252.8729,13.7194 C252.7329,13.6254 252.4949,13.5554 252.1579,13.5084 L252.1229,13.5084 C252.0999,13.4984 252.0599,13.4864 251.9999,13.4744 C251.5829,13.3694 251.3729,13.1654 251.3729,12.8644 C251.3729,12.4794 251.7159,12.1964 252.4029,12.0094 C252.6679,11.9384 252.9199,11.8644 253.1529,11.7814 C253.3839,11.7004 253.6109,11.6094 253.8309,11.5034 C254.5639,11.1424 255.2289,10.6604 255.8199,10.0554 C256.4249,9.4514 256.7839,9.1494 256.9019,9.1494 C257.0289,9.1494 257.1169,9.2144 257.1629,9.3404 C257.2209,9.4564 257.2499,9.6894 257.2499,10.0384" id="Fill-30"></path>
                        <path d="M243.3079,9.5699 C245.7289,9.5699 247.6389,10.3519 249.0399,11.9149 C250.4529,13.4669 251.1589,15.5619 251.1589,18.2029 C251.1589,20.7969 250.4289,22.8629 248.9709,24.4029 C247.5119,25.9439 245.8729,26.7119 243.3829,26.7129 C241.1479,26.7129 239.0009,25.9199 237.6119,24.3339 C236.2329,22.7469 235.5449,20.6809 235.5449,18.1329 C235.5449,15.5839 236.2629,13.5239 237.6989,11.9499 C239.1349,10.3629 241.0039,9.5699 243.3079,9.5699 M243.4599,10.8809 C242.5249,10.8479 241.7629,11.3829 241.1799,12.4869 C240.6099,13.5789 240.2899,15.1149 240.2189,17.0939 C240.1349,19.5709 240.3819,21.5659 240.9669,23.0799 C241.5629,24.5839 242.3819,25.3539 243.4239,25.3909 C244.3389,25.4219 245.0809,24.8809 245.6539,23.7649 C246.2349,22.6499 246.5619,21.1089 246.6309,19.1419 C246.7169,16.6769 246.4679,14.6939 245.8819,13.1899 C245.2979,11.6869 244.4899,10.9169 243.4599,10.8809" id="Fill-32"></path>
                        <path d="M117.3926,1.733 C117.4506,1.781 117.6106,1.922 117.6166,2.178 C117.6146,2.559 117.6116,3.596 117.6106,3.605 C117.5816,3.779 117.5296,3.949 117.3216,3.784 C115.9306,2.65 113.5056,2.405 112.0546,3.407 C110.6966,4.482 110.0916,5.646 110.9696,7.926 C112.1336,10.117 114.3046,9.656 116.3396,9.629 C116.4466,9.629 116.6906,9.687 116.7096,9.984 L116.7186,11.321 C116.7186,11.577 116.5256,11.66 116.2586,11.649 C116.0166,11.641 115.9396,11.659 115.7356,11.641 C113.6446,11.587 111.8036,12.202 110.4246,13.752 C108.1106,16.24 107.7036,19.247 109.1166,22.86 C110.2286,24.787 111.0146,25.619 113.2036,26.384 C115.9016,27.002 117.8336,26.876 119.5356,24.87 C120.7986,23.598 121.1676,21.399 120.3956,19.733 C119.3316,17.967 116.7236,17.204 114.7706,18.349 C114.4956,18.51 114.1936,18.782 114.0316,18.925 C113.9486,18.985 113.8496,18.947 113.7946,18.883 C113.7926,18.883 113.0716,17.864 113.0696,17.862 C112.9646,17.723 112.9756,17.647 113.0216,17.54 C113.0256,17.53 113.2576,17.19 113.4356,16.993 C115.7176,14.46 118.6916,15.974 121.9016,15.992 C123.3006,15.986 125.0116,15.896 125.9816,14.354 C126.8176,13.027 125.6446,11.132 123.6606,10.626 C122.5276,10.337 120.8886,10.599 120.3936,10.744 C120.2216,10.79 120.1666,10.728 120.1566,10.589 C120.1536,10.542 120.1576,9.664 120.1436,9.66 C120.1526,9.399 120.3396,9.306 120.4426,9.26 C121.0506,8.981 121.7036,8.665 122.8026,8.529 C125.0206,8.257 127.2196,8.712 128.5756,10.183 C130.0296,11.764 130.5416,13.774 129.9556,15.831 C129.4316,17.228 128.3796,18.475 126.8456,19.058 C125.2686,19.66 124.2376,19.358 122.9526,18.721 C124.2566,21.28 123.8036,25.4 121.5676,27.554 C118.3626,30.713 114.5366,30.871 109.8996,29.905 C105.1246,28.477 102.9906,25.809 102.1266,22.756 C101.1636,19.227 102.0896,15.225 105.2106,12.45 C106.2516,11.525 108.5776,10.595 108.5776,10.595 C106.7366,9.611 105.9896,7.934 105.7996,6.072 C105.7456,3.764 107.1576,1.598 108.9746,0.816 C111.3336,-0.374 114.1626,-0.27 116.7646,1.311 C117.0166,1.465 117.3836,1.725 117.3926,1.733" id="Fill-34"></path>
                        <path d="M247.1799,29.1012 L245.6829,33.0792 L244.1919,29.1012 L243.3609,29.1012 L243.3609,33.9542 L243.9929,33.9542 L243.9239,29.9462 L245.4279,33.9542 L245.9309,33.9542 L247.4599,29.8842 L247.3729,33.9542 L248.0139,33.9542 L248.0139,29.1012 L247.1799,29.1012 Z M251.1849,31.8912 L252.5039,33.9542 L253.2739,33.9542 L251.9129,31.8492 C252.1459,31.8082 253.0579,31.6512 253.0579,30.5162 C253.0579,30.0682 252.9069,29.6652 252.5519,29.3952 C252.1739,29.1082 251.7749,29.1082 251.1009,29.1012 L249.3009,29.1012 L249.3009,33.9542 L249.9319,33.9542 L249.9319,31.8912 L251.1849,31.8912 Z M249.9319,29.6352 L251.1849,29.6352 C251.5549,29.6352 251.8709,29.6292 252.1259,29.8412 C252.3999,30.0682 252.4149,30.3992 252.4149,30.5222 C252.4149,30.8742 252.2559,31.1982 251.8079,31.3072 C251.6179,31.3562 251.4239,31.3562 251.2189,31.3562 L249.9319,31.3562 L249.9319,29.6352 Z M257.1629,31.7392 L257.1629,31.1692 L254.7999,31.1692 L254.7999,29.6692 L257.5219,29.6692 L257.5219,29.1012 L254.1739,29.1012 L254.1739,33.9542 L257.6039,33.9542 L257.6039,33.3902 L254.7999,33.3902 L254.7999,31.7392 L257.1629,31.7392 Z M258.5389,33.9542 L259.1919,33.9542 L259.1919,29.1012 L258.5389,29.1012 L258.5389,33.9542 Z M263.6889,29.1012 L263.7139,32.9922 L261.0809,29.1012 L260.4759,29.1012 L260.4759,33.9542 L261.0809,33.9542 L261.0269,30.0072 L263.6889,33.9542 L264.2709,33.9542 L264.2709,29.1012 L263.6889,29.1012 Z M265.3189,29.1012 L265.3189,29.6992 L268.0739,29.6992 L265.0779,33.3222 L265.0779,33.9542 L268.8779,33.9542 L268.8779,33.3702 L265.8269,33.3702 L268.8099,29.7052 L268.8099,29.1012 L265.3189,29.1012 Z" id="Fill-36"></path>
                        <polygon id="Fill-38" points="1.5545 33.6424 3.7195 33.6424 3.7195 34.1754 0.9595 34.1754 0.9595 29.7004 1.5545 29.7004"></polygon>
                        <path d="M4.383,34.175 L4.87,34.175 L4.87,31.195 L4.383,31.195 L4.383,34.175 Z M4.383,30.288 L4.87,30.288 L4.87,29.707 L4.383,29.707 L4.383,30.288 Z" id="Fill-40"></path>
                        <path d="M8.3784,33.0987 C8.3604,33.2197 8.3264,33.3847 8.2074,33.6057 C7.9604,34.0617 7.5364,34.2627 6.9864,34.2627 C5.8914,34.2627 5.4984,33.4477 5.4984,32.7127 C5.4984,31.8657 5.9474,31.0977 6.9414,31.0977 C7.4234,31.0977 8.1254,31.2707 8.3214,32.0977 L7.7644,32.1507 C7.7454,32.0297 7.6374,31.4657 6.9614,31.4657 C6.0934,31.4657 6.0564,32.4117 6.0564,32.6757 C6.0564,32.9977 6.1194,33.2747 6.2514,33.4797 C6.4224,33.7517 6.6824,33.8767 6.9924,33.8767 C7.7204,33.8767 7.8024,33.2807 7.8354,33.0487 L8.3784,33.0987 Z" id="Fill-42"></path>
                        <path d="M11.0805,32.4032 C11.0365,31.6192 10.4715,31.4852 10.2255,31.4852 C9.7955,31.4852 9.4355,31.8032 9.3775,32.4032 L11.0805,32.4032 Z M11.6305,33.2572 C11.5625,33.4592 11.2955,34.2622 10.2835,34.2622 C9.3965,34.2622 8.8215,33.6622 8.8215,32.6572 C8.8215,31.5302 9.6325,31.0982 10.2645,31.0982 C10.8155,31.0982 11.3965,31.4032 11.5745,32.1572 C11.6305,32.4102 11.6305,32.6362 11.6305,32.7632 L9.3665,32.7632 C9.3535,33.2632 9.6185,33.8852 10.3275,33.8852 C10.7765,33.8852 11.0295,33.5862 11.1185,33.1862 L11.6305,33.2572 Z" id="Fill-43"></path>
                        <path d="M12.8646,31.1937 L12.8646,31.6307 C13.1436,31.1447 13.6176,31.0977 13.7966,31.0977 C14.1746,31.0977 14.6306,31.2887 14.7776,31.7837 C14.8256,31.9617 14.8256,32.1447 14.8256,32.3967 L14.8256,34.1747 L14.3266,34.1747 L14.3266,32.4777 C14.3266,32.1747 14.3266,32.0867 14.2946,31.9857 C14.2076,31.7007 13.9276,31.5737 13.6566,31.5737 C13.4346,31.5737 13.2446,31.6437 13.0866,31.8027 C12.8646,32.0227 12.8646,32.2517 12.8646,32.4717 L12.8646,34.1747 L12.3586,34.1747 L12.3586,31.1937 L12.8646,31.1937 Z" id="Fill-44"></path>
                        <path d="M16.5883,32.8588 C16.1073,32.7448 15.5183,32.6118 15.5183,31.9918 C15.5183,31.4468 15.9813,31.1048 16.6713,31.1048 C17.2403,31.1048 17.8473,31.3768 17.9483,32.0808 L17.4033,32.1508 C17.3993,31.9668 17.3863,31.8208 17.1903,31.6698 C16.9943,31.5178 16.7663,31.4928 16.6123,31.4928 C16.2213,31.4928 16.0253,31.7258 16.0253,31.9278 C16.0253,32.2138 16.3483,32.3028 16.7403,32.3968 L17.0243,32.4658 C17.3803,32.5478 18.0183,32.6998 18.0183,33.3278 C18.0183,33.8138 17.5873,34.2698 16.7663,34.2698 C16.4303,34.2698 16.0823,34.2008 15.8403,34.0308 C15.7463,33.9618 15.4563,33.7178 15.3983,33.2198 L15.9673,33.1318 C15.9613,33.2628 15.9613,33.5178 16.1903,33.7128 C16.3663,33.8658 16.5883,33.8858 16.7913,33.8858 C17.2343,33.8858 17.4943,33.7128 17.4943,33.3918 C17.4943,33.0488 17.2343,32.9848 16.8733,32.9148 L16.5883,32.8588 Z" id="Fill-45"></path>
                        <path d="M20.8066,32.4032 C20.7626,31.6192 20.1986,31.4852 19.9526,31.4852 C19.5216,31.4852 19.1626,31.8032 19.1036,32.4032 L20.8066,32.4032 Z M21.3566,33.2572 C21.2876,33.4592 21.0206,34.2622 20.0096,34.2622 C19.1236,34.2622 18.5476,33.6622 18.5476,32.6572 C18.5476,31.5302 19.3566,31.0982 19.9896,31.0982 C20.5406,31.0982 21.1236,31.4032 21.3016,32.1572 C21.3566,32.4102 21.3566,32.6362 21.3566,32.7632 L19.0916,32.7632 C19.0806,33.2632 19.3446,33.8852 20.0546,33.8852 C20.5026,33.8852 20.7566,33.5862 20.8446,33.1862 L21.3566,33.2572 Z" id="Fill-46"></path>
                        <path d="M22.5074,32.6889 C22.5074,33.3019 22.7934,33.8139 23.4384,33.8139 C24.0144,33.8139 24.3754,33.3849 24.3754,32.6669 C24.3754,31.8269 23.8614,31.5609 23.4574,31.5559 C23.0714,31.5489 22.5074,31.7829 22.5074,32.6889 L22.5074,32.6889 Z M24.8684,29.7009 L24.8684,34.1749 L24.3614,34.1749 L24.3614,33.7889 C24.2404,33.9349 23.9634,34.2629 23.3364,34.2629 C22.4754,34.2629 21.9684,33.6189 21.9684,32.6669 C21.9684,31.5039 22.7304,31.0979 23.3284,31.0979 C23.5264,31.0979 24.0204,31.1439 24.3614,31.5869 L24.3614,29.7009 L24.8684,29.7009 Z" id="Fill-47"></path>
                        <path d="M28.0734,31.7834 L29.2574,31.7834 C29.4474,31.7834 29.6244,31.7834 29.8004,31.7384 C30.2124,31.6364 30.3584,31.3404 30.3584,31.0174 C30.3584,30.9044 30.3454,30.5994 30.0934,30.3904 C29.8584,30.1934 29.5684,30.2004 29.2254,30.2004 L28.0734,30.2004 L28.0734,31.7834 Z M28.0734,32.2764 L28.0734,34.1754 L27.4904,34.1754 L27.4904,29.7064 L29.1504,29.7064 C29.7694,29.7144 30.1364,29.7144 30.4854,29.9794 C30.8144,30.2254 30.9534,30.5994 30.9534,31.0104 C30.9534,32.0554 30.1124,32.2004 29.8974,32.2384 L31.1504,34.1754 L30.4404,34.1754 L29.2254,32.2764 L28.0734,32.2764 Z" id="Fill-48"></path>
                        <polygon id="Fill-49" points="32.6033 32.1376 32.6033 33.6566 35.1853 33.6566 35.1853 34.1746 32.0253 34.1746 32.0253 29.7066 35.1093 29.7066 35.1093 30.2316 32.6033 30.2316 32.6033 31.6126 34.7793 31.6126 34.7793 32.1376"></polygon>
                        <path d="M38.4141,32.3083 L37.7611,30.4473 L37.0781,32.3083 L38.4141,32.3083 Z M38.5911,32.8083 L36.8891,32.8083 L36.3891,34.1753 L35.7561,34.1753 L37.4581,29.7063 L38.0781,29.7063 L39.7051,34.1753 L39.0781,34.1753 L38.5911,32.8083 Z" id="Fill-50"></path>
                        <path d="M42.892,32.3083 L42.24,30.4473 L41.557,32.3083 L42.892,32.3083 Z M43.07,32.8083 L41.367,32.8083 L40.867,34.1753 L40.234,34.1753 L41.936,29.7063 L42.559,29.7063 L44.184,34.1753 L43.556,34.1753 L43.07,32.8083 Z" id="Fill-51"></path>
                        <path d="M49.2692,33.6882 L49.2692,34.1752 L46.4782,34.1752 L46.4782,33.6302 C46.9852,33.3712 47.4202,33.0042 47.8312,32.6122 C48.2572,32.2132 48.6302,31.7632 48.6302,31.1882 C48.6302,30.6752 48.3332,30.3642 47.8262,30.3642 C47.3322,30.3642 47.0212,30.6312 47.0212,31.2072 C47.0212,31.4092 47.0652,31.5922 47.0992,31.7152 L46.5422,31.7152 C46.5022,31.5862 46.4652,31.4542 46.4652,31.2072 C46.4652,31.0042 46.4902,30.5612 46.8322,30.2322 C47.0532,30.0242 47.4082,29.8732 47.8372,29.8732 C48.7302,29.8732 49.2172,30.5152 49.2172,31.2112 C49.2172,32.0982 48.4782,32.7262 48.1042,33.0422 C47.7872,33.3072 47.7302,33.3452 47.2172,33.6882 L49.2692,33.6882 Z" id="Fill-52"></path>
                        <path d="M51.7438,30.3643 C51.5858,30.3643 51.2438,30.3963 51.0038,30.8213 C50.7938,31.1873 50.7628,31.7503 50.7628,32.0483 C50.7628,32.4483 50.8138,32.8973 50.9978,33.2453 C51.0798,33.3973 51.2878,33.7253 51.7438,33.7253 C52.6428,33.7253 52.7048,32.4293 52.7048,32.0483 C52.7128,31.3023 52.4968,30.3643 51.7438,30.3643 M51.7378,34.2143 C50.7688,34.2143 50.1998,33.3153 50.1998,32.0813 C50.1998,30.8213 50.7498,29.8723 51.7258,29.8723 C52.5408,29.8723 53.2758,30.5993 53.2758,32.0413 C53.2758,33.3213 52.6998,34.2143 51.7378,34.2143" id="Fill-53"></path>
                        <path d="M55.6013,30.3643 C55.4433,30.3643 55.1013,30.3963 54.8603,30.8213 C54.6513,31.1873 54.6213,31.7503 54.6213,32.0483 C54.6213,32.4483 54.6703,32.8973 54.8553,33.2453 C54.9363,33.3973 55.1453,33.7253 55.6013,33.7253 C56.5013,33.7253 56.5633,32.4293 56.5633,32.0483 C56.5693,31.3023 56.3543,30.3643 55.6013,30.3643 M55.5953,34.2143 C54.6273,34.2143 54.0573,33.3153 54.0573,32.0813 C54.0573,30.8213 54.6073,29.8723 55.5813,29.8723 C56.3993,29.8723 57.1333,30.5993 57.1333,32.0413 C57.1333,33.3213 56.5573,34.2143 55.5953,34.2143" id="Fill-54"></path>
                        <path d="M59.3231,30.3595 C58.7601,30.3595 58.4941,30.6255 58.4941,30.9855 C58.4941,31.2135 58.5951,31.3895 58.7151,31.4935 C58.9111,31.6555 59.1901,31.6615 59.3421,31.6615 C59.6581,31.6615 59.8491,31.5875 59.9551,31.4975 C60.0761,31.4025 60.1771,31.2325 60.1771,30.9985 C60.1711,30.4355 59.6271,30.3595 59.3231,30.3595 M59.3231,32.1375 C58.6521,32.1375 58.4001,32.5105 58.4001,32.9035 C58.4001,33.4095 58.8051,33.6945 59.3551,33.6945 C59.9181,33.6945 60.2851,33.3785 60.2791,32.8895 C60.2731,32.4035 59.9101,32.1375 59.3231,32.1375 M60.8661,32.8895 C60.8661,33.5865 60.3801,34.2145 59.3421,34.2145 C58.2991,34.2145 57.8241,33.5605 57.8241,32.9085 C57.8241,32.6995 57.8671,32.5175 57.9571,32.3465 C58.0841,32.0935 58.2421,31.9925 58.4061,31.8845 C58.1841,31.7385 57.9311,31.5055 57.9311,31.0055 C57.9311,30.6745 58.0571,30.3595 58.3101,30.1555 C58.6521,29.8845 59.1531,29.8725 59.3551,29.8725 C59.5821,29.8725 59.7801,29.8905 59.9551,29.9405 C60.5761,30.1245 60.7481,30.6135 60.7481,30.9985 C60.7481,31.5915 60.3801,31.8135 60.2611,31.8845 C60.4491,31.9985 60.8661,32.2385 60.8661,32.8895" id="Fill-55"></path>
                    </g>
                </g>
            </g>
        </g>
    </g>
</svg>