<?xml version="1.0" encoding="UTF-8" standalone="no"?>
<svg width="20px" height="20px" viewBox="0 0 20 20" version="1.1" xmlns="http://www.w3.org/2000/svg" xmlns:xlink="http://www.w3.org/1999/xlink">
    <!-- Generator: Sketch 49 (51002) - http://www.bohemiancoding.com/sketch -->
    <title>Person white</title>
    <desc>Created with Sketch.</desc>
    <defs></defs>
    <g id="Andrew-BT-master" stroke="none" stroke-width="1" fill="none" fill-rule="evenodd">
        <g id="Artboard" transform="translate(-401.000000, -425.000000)" fill="#FFFFFF">
            <path d="M418.691501,439.707031 C419.40504,439.941407 419.964671,440.332029 420.370409,440.878906 C420.776148,441.425784 420.986009,442.057288 421,442.773438 L421,444.53125 C420.986009,444.67448 420.937041,444.788411 420.853095,444.873047 C420.76915,444.957683 420.650228,445 420.496327,445 L401.503673,445 C401.349772,445 401.227353,444.957683 401.136411,444.873047 C401.04547,444.788411 401,444.67448 401,444.53125 L401,442.773438 C401.013991,442.057288 401.223852,441.425784 401.629591,440.878906 C402.035329,440.332029 402.59496,439.941407 403.308499,439.707031 L407.988458,438.125 L407.988458,436.171875 C407.232945,435.638018 406.617351,434.921879 406.141658,434.023438 C405.665965,433.124996 405.421126,432.135422 405.407135,431.054688 C405.449108,429.335929 405.987753,427.906907 407.023085,426.767578 C408.058417,425.62825 409.352563,425.039063 410.905561,425 C412.444569,425.039063 413.731719,425.62825 414.767051,426.767578 C415.802384,427.906907 416.341028,429.335929 416.383001,431.054688 C416.383001,432.083338 416.162646,433.020829 415.721931,433.867188 C415.281215,434.713546 414.704096,435.416664 413.990556,435.976562 L413.990556,438.125 L416.341028,438.90625 C417.712144,439.361981 418.495627,439.628906 418.691501,439.707031 Z M410.905561,425.9375 C409.828256,425.963542 408.890875,426.331377 408.093389,427.041016 C407.295904,427.750655 406.764255,428.652338 406.498426,429.746094 C406.750264,429.83724 406.984609,429.905599 407.201469,429.951172 C407.418329,429.996745 407.652675,430.019531 407.904512,430.019531 C408.604061,430.019531 409.244138,429.886069 409.824764,429.619141 C410.405389,429.352212 410.898564,428.958336 411.304302,428.4375 C411.346275,428.398437 411.398741,428.359375 411.4617,428.320312 C411.524659,428.28125 411.605106,428.261719 411.703043,428.261719 C411.884926,428.352865 412.017838,428.44401 412.101784,428.535156 C412.493531,429.225264 412.937738,429.697264 413.434418,429.951172 C413.931097,430.205079 414.550189,430.260417 415.29171,430.117188 C415.067855,428.880202 414.56069,427.877608 413.770199,427.109375 C412.979709,426.341142 412.024839,425.950521 410.905561,425.9375 Z M406.393494,431.054688 C406.421476,432.473965 406.858688,433.655594 407.705142,434.599609 C408.551596,435.543625 409.618392,436.035156 410.905561,436.074219 C412.17874,436.035156 413.238541,435.530604 414.084995,434.560547 C414.931449,433.59049 415.36866,432.38933 415.396642,430.957031 C415.088841,431.035157 414.788039,431.067708 414.494229,431.054688 C413.892617,431.041667 413.35747,430.901694 412.888772,430.634766 C412.420075,430.367837 411.989859,429.980471 411.598111,429.472656 C411.094436,429.941409 410.524312,430.305988 409.887723,430.566406 C409.251134,430.826824 408.555093,430.957031 407.79958,430.957031 C407.547743,430.957031 407.313397,430.947266 407.096537,430.927734 C406.879677,430.908203 406.645332,430.852865 406.393494,430.761719 L406.393494,431.054688 Z M419.992655,444.0625 L419.992655,442.773438 C419.978664,442.291664 419.81777,441.861981 419.509969,441.484375 C419.202167,441.106769 418.796435,440.820313 418.29276,440.625 L413.298006,438.945312 C413.102133,438.841145 413.004197,438.691407 413.004197,438.496094 L413.004197,436.621094 C412.402585,436.920574 411.703047,437.076823 410.905561,437.089844 C410.555787,437.089844 410.223506,437.063802 409.908709,437.011719 C409.593912,436.959635 409.289613,436.86198 408.995803,436.71875 L408.995803,438.496094 C408.995803,438.58724 408.971319,438.668619 408.92235,438.740234 C408.873382,438.811849 408.799931,438.854167 408.701994,438.867188 L403.70724,440.527344 C403.189574,440.722657 402.776847,441.015623 402.469045,441.40625 C402.161244,441.796877 402.007345,442.252602 402.007345,442.773438 L402.007345,444.0625 L419.992655,444.0625 Z" id="Person-white"></path>
        </g>
    </g>
</svg>