<?xml version="1.0" encoding="UTF-8" standalone="no"?>
<svg width="30px" height="30px" viewBox="0 0 30 30" version="1.1" xmlns="http://www.w3.org/2000/svg" xmlns:xlink="http://www.w3.org/1999/xlink">
    <!-- Generator: Sketch 47 (45396) - http://www.bohemiancoding.com/sketch -->
    <title>Email</title>
    <desc>Created with Sketch.</desc>
    <defs></defs>
    <g id="Overview" stroke="none" stroke-width="1" fill="none" fill-rule="evenodd">
        <g id="Social-and-school-sprite-SVG" transform="translate(-150.000000, 0.000000)">
            <g id="SVG">
                <g id="Email" transform="translate(150.000000, 0.000000)">
                    <rect id="Rectangle-156" fill="#8C8C8C" x="0" y="0" width="30" height="30" rx="2"></rect>
                    <g id="Group-4" transform="translate(4.000000, 8.000000)" fill-rule="nonzero" fill="#FFFFFF">
                        <path d="M1.99456145,1 L1.99456145,1 C1.44613029,1 1,1.4485037 1,2.00585866 L1,11.9941413 C1,12.5469654 1.45194143,13 1.99456145,13 L19.0054385,13 C19.5538697,13 20,12.5514963 20,11.9941413 L20,2.00585866 C20,1.45303458 19.5480586,1 19.0054385,1 L1.99456145,1 Z M1.99456145,0 L1.99456145,0 L19.0054385,0 C20.0976562,0 21,0.898053512 21,2.00585866 L21,11.9941413 C21,13.1029399 20.1070044,14 19.0054385,14 L1.99456145,14 C0.90234375,14 0,13.1019465 0,11.9941413 L0,2.00585866 C0,0.897060126 0.892995579,0 1.99456145,0 L1.99456145,0 Z" id="Rectangle-80"></path>
                        <polygon id="Path-3" points="20.5481706 12.7952718 12.4891521 6.70658774 12.1877467 6.47887235 11.8863412 6.70658774 10.2745375 7.92432456 10.8773484 7.92432456 9.26554475 6.70658774 8.9641393 6.47887235 8.66273385 6.70658774 0.6037154 12.7952718 1.2065263 13.5931559 9.26554475 7.50447183 8.66273385 7.50447183 10.2745375 8.72220865 10.575943 8.94992404 10.8773484 8.72220865 12.4891521 7.50447183 11.8863412 7.50447183 19.9453597 13.5931559"></polygon>
                        <polygon id="Path-2" points="0.6037154 1.41578775 10.2745375 8.72220865 10.575943 8.94992404 10.8773484 8.72220865 20.5481706 1.41578775 19.9453597 0.617903658 10.2745375 7.92432456 10.8773484 7.92432456 1.2065263 0.617903658"></polygon>
                    </g>
                </g>
            </g>
        </g>
    </g>
</svg>