<?xml version="1.0" encoding="UTF-8" standalone="no"?>
<svg width="20px" height="20px" viewBox="0 0 20 20" version="1.1" xmlns="http://www.w3.org/2000/svg" xmlns:xlink="http://www.w3.org/1999/xlink">
    <!-- Generator: Sketch 49 (51002) - http://www.bohemiancoding.com/sketch -->
    <title>StarWhite</title>
    <desc>Created with Sketch.</desc>
    <defs></defs>
    <g id="Andrew-BT-master" stroke="none" stroke-width="1" fill="none" fill-rule="evenodd">
        <g id="Artboard" transform="translate(-401.000000, -380.000000)" fill="#FFFFFF" fill-rule="nonzero">
            <path d="M410.712576,394.712601 C410.884986,394.585357 411.115014,394.585357 411.287424,394.712601 L415.963223,398.163489 L414.27868,392.433389 C414.216567,392.222105 414.287649,391.992671 414.456318,391.860027 L419.030664,388.262694 L413.31376,388.172185 C413.102962,388.168848 412.916865,388.02705 412.848698,387.817828 L411,382.143665 L409.151302,387.817828 C409.083135,388.02705 408.897038,388.168848 408.68624,388.172185 L402.969336,388.262694 L407.543682,391.860027 C407.712351,391.992671 407.783433,392.222105 407.72132,392.433389 L406.036777,398.163489 L410.712576,394.712601 Z M405.416306,399.90235 C405.026896,400.189747 404.511332,399.796908 404.651624,399.319694 L406.663252,392.476987 L401.200711,388.181164 C400.81975,387.881571 401.016679,387.245945 401.492794,387.238407 L408.319743,387.130325 L410.5274,380.354417 C410.681364,379.881861 411.318636,379.881861 411.4726,380.354417 L413.680257,387.130325 L420.507206,387.238407 C420.983321,387.245945 421.18025,387.881571 420.799289,388.181164 L415.336748,392.476987 L417.348376,399.319694 C417.488668,399.796908 416.973104,400.189747 416.583694,399.90235 L411,395.781407 L405.416306,399.90235 Z M408.671164,387.124761 L408.206102,387.479118 L408.319743,387.130325 L408.671164,387.124761 Z" id="StarWhite"></path>
        </g>
    </g>
</svg>