<?xml version="1.0" encoding="UTF-8" standalone="no"?>
<svg width="20px" height="20px" viewBox="0 0 20 20" version="1.1" xmlns="http://www.w3.org/2000/svg" xmlns:xlink="http://www.w3.org/1999/xlink">
    <!-- Generator: Sketch 47 (45396) - http://www.bohemiancoding.com/sketch -->
    <title>White cross</title>
    <desc>Created with Sketch.</desc>
    <defs></defs>
    <g id="Page-1" stroke="none" stroke-width="1" fill="none" fill-rule="evenodd">
        <g id="iPhone-SE-Copy-2" transform="translate(-255.000000, -30.000000)" fill="#FFFFFF">
            <g id="Group">
                <path d="M264.292893,40 L255.146447,49.1464466 C254.951184,49.3417088 254.951184,49.6582912 255.146447,49.8535534 C255.341709,50.0488155 255.658291,50.0488155 255.853553,49.8535534 L265,40.7071068 L274.146447,49.8535534 C274.341709,50.0488155 274.658291,50.0488155 274.853553,49.8535534 C275.048816,49.6582912 275.048816,49.3417088 274.853553,49.1464466 L265.707107,40 L274.853553,30.8535534 C275.048816,30.6582912 275.048816,30.3417088 274.853553,30.1464466 C274.658291,29.9511845 274.341709,29.9511845 274.146447,30.1464466 L265,39.2928932 L255.853553,30.1464466 C255.658291,29.9511845 255.341709,29.9511845 255.146447,30.1464466 C254.951184,30.3417088 254.951184,30.6582912 255.146447,30.8535534 L264.292893,40 Z" id="White-cross"></path>
            </g>
        </g>
    </g>
</svg>